[Header]			# Header keywords are followed by a single value
FileType htr		# single word string
DataType HTRS		# Hierarchical translations followed by rotations and Scale
FileVersion 1		# integer
NumSegments 20		# integer
NumFrames 4		# integer
DataFrameRate 60	# integer
EulerRotationOrder ZYX	# one word string
CalibrationUnits mm	# one word string
RotationUnits Degrees	# one word string
GlobalAxisofGravity Y	# character, X or Y or Z
BoneLengthAxis Y
ScaleFactor 1.000000
[SegmentNames&Hierarchy]
#CHILD	PARENT
LowerTorso	GLOBAL
UpperTorso	LowerTorso
LCollarBone	UpperTorso
RCollarBone	UpperTorso
LUpArm	LCollarBone
RUpArm	RCollarBone
LLowArm	LUpArm
RLowArm	RUpArm
LHand	LLowArm
RHand	RLowArm
LPelvis	LowerTorso
RPelvis	LowerTorso
LThigh	LPelvis
RThigh	RPelvis
LLowLeg	LThigh
RLowLeg	RThigh
LFoot	LLowLeg
RFoot	RLowLeg
Neck	UpperTorso
Head	Neck
[BasePosition]
#SegmentName Tx, Ty, Tz, Rx, Ry, Rz, BoneLength
LowerTorso	0.000000	0.000000	0.000000	0.000000	0.000000	0.000000	247.497849
UpperTorso	0.000000	247.497849	0.000000	-3.483188	-0.016176	-0.898562	303.935425
LCollarBone	0.000000	303.935425	0.000000	-2.778975	2.380151	-103.909637	160.814774
RCollarBone	0.000000	303.935425	0.000000	1.923138	-2.431442	97.423370	173.085861
LUpArm	0.000000	160.814774	0.000000	9.905276	-0.146364	3.830753	266.228302
RUpArm	0.000000	173.085861	0.000000	3.559436	0.163580	4.186032	250.544907
LLowArm	0.000000	266.228302	0.000000	0.604391	2.460426	18.478745	239.401855
RLowArm	0.000000	250.544907	0.000000	-4.677841	-1.676118	-16.763147	247.676224
LHand	0.000000	239.401855	0.000000	-2.922581	-1.504997	-10.879651	178.693573
RHand	0.000000	247.676224	0.000000	8.087741	0.221451	14.771751	171.097885
LPelvis	0.000000	0.000000	0.000000	25.628080	-1.004481	-103.107483	127.213554
RPelvis	0.000000	0.000000	0.000000	7.212610	1.026056	95.806335	154.731140
LThigh	0.000000	127.213554	0.000000	-8.629928	-24.934669	-78.343170	392.414856
RThigh	0.000000	154.731140	0.000000	-0.087953	7.045837	82.361420	403.151337
LLowLeg	0.000000	392.414856	0.000000	-11.135172	-0.396179	6.207254	411.539612
RLowLeg	0.000000	403.151337	0.000000	-15.879393	-0.038285	-2.567663	396.965240
LFoot	0.000000	411.539612	0.000000	86.993790	-9.419292	-7.421347	182.020935
RFoot	0.000000	396.965240	0.000000	85.685738	19.489246	8.810133	181.714371
Neck	0.000000	303.935425	0.000000	26.917892	0.010495	-0.245093	141.112030
Head	0.000000	141.112030	0.000000	-34.290924	-1.751020	-3.852423	164.098740
#Beginning of Data. Separated by tabs.
[LowerTorso]
#Fr	Tx	Ty	Tz	Rx	Ry	Rz	SF
875	1242.743164	802.114624	-315.209686	130.598984	-79.717369	-126.905258	1.000000
876	1228.170898	805.968384	-322.009399	124.788147	-80.781898	-121.332619	1.000000
877	1213.544922	809.764465	-328.507599	117.968788	-81.694649	-114.610825	1.000000
878	1198.827637	813.357788	-334.656586	111.382080	-82.326935	-107.983887	1.000000
[UpperTorso]
#Fr	Tx	Ty	Tz	Rx	Ry	Rz	SF
875	0.000000	0.000000	0.000000	18.926224	-5.964765	7.526111	1.000000
876	0.000000	0.000000	0.000000	19.003157	-5.067822	7.238543	1.000000
877	0.000000	0.000000	0.000000	18.915728	-4.232490	6.876659	1.000000
878	0.000000	0.000000	0.000000	18.641258	-3.358188	6.490588	1.000000
[LCollarBone]
#Fr	Tx	Ty	Tz	Rx	Ry	Rz	SF
875	0.000000	0.000000	0.000000	7.559388	2.011035	-0.817681	1.000000
876	0.000000	0.000000	0.000000	7.489069	2.074727	-1.284625	1.000000
877	0.000000	0.000000	0.000000	7.225708	2.036417	-1.467929	1.000000
878	0.000000	0.000000	0.000000	6.927776	1.950180	-1.434399	1.000000
[RCollarBone]
#Fr	Tx	Ty	Tz	Rx	Ry	Rz	SF
875	0.000000	0.000000	0.000000	7.339622	-1.283365	3.257232	1.000000
876	0.000000	0.000000	0.000000	7.522061	-1.425215	4.341638	1.000000
877	0.000000	0.000000	0.000000	7.813701	-1.584338	5.266778	1.000000
878	0.000000	0.000000	0.000000	8.290086	-1.780411	6.031327	1.000000
[LUpArm]
#Fr	Tx	Ty	Tz	Rx	Ry	Rz	SF
875	0.000000	0.000000	0.000000	51.246281	-7.825230	10.199604	1.000000
876	0.000000	0.000000	0.000000	49.648712	-6.583939	11.464236	1.000000
877	0.000000	0.000000	0.000000	48.024918	-5.388841	12.512595	1.000000
878	0.000000	0.000000	0.000000	46.217628	-4.279026	13.337765	1.000000
[RUpArm]
#Fr	Tx	Ty	Tz	Rx	Ry	Rz	SF
875	0.000000	0.000000	0.000000	-19.701485	-22.372202	33.393368	1.000000
876	0.000000	0.000000	0.000000	-17.269798	-24.446392	33.296028	1.000000
877	0.000000	0.000000	0.000000	-14.520315	-26.848228	33.007557	1.000000
878	0.000000	0.000000	0.000000	-11.516805	-29.322638	32.418976	1.000000
[LLowArm]
#Fr	Tx	Ty	Tz	Rx	Ry	Rz	SF
875	0.000000	0.000000	0.000000	114.840729	-9.594439	-11.222274	1.000000
876	0.000000	0.000000	0.000000	113.842865	-9.636852	-11.076278	1.000000
877	0.000000	0.000000	0.000000	112.824921	-9.677519	-10.926612	1.000000
878	0.000000	0.000000	0.000000	111.793320	-9.716041	-10.774234	1.000000
[RLowArm]
#Fr	Tx	Ty	Tz	Rx	Ry	Rz	SF
875	0.000000	0.000000	0.000000	9.201259	0.810045	0.052840	1.000000
876	0.000000	0.000000	0.000000	9.935691	0.874153	0.062651	1.000000
877	0.000000	0.000000	0.000000	10.699924	0.940721	0.073731	1.000000
878	0.000000	0.000000	0.000000	11.521642	1.012121	0.086635	1.000000
[LHand]
#Fr	Tx	Ty	Tz	Rx	Ry	Rz	SF
875	0.000000	0.000000	0.000000	36.721523	20.480568	20.658165	1.000000
876	0.000000	0.000000	0.000000	35.436974	20.147957	20.080872	1.000000
877	0.000000	0.000000	0.000000	34.014709	19.734749	19.405796	1.000000
878	0.000000	0.000000	0.000000	32.938156	19.351814	18.790714	1.000000
[RHand]
#Fr	Tx	Ty	Tz	Rx	Ry	Rz	SF
875	0.000000	0.000000	0.000000	-0.797961	-3.460146	0.226128	1.000000
876	0.000000	0.000000	0.000000	-0.870848	-3.539322	-0.452636	1.000000
877	0.000000	0.000000	0.000000	-0.888067	-3.639679	-1.039118	1.000000
878	0.000000	0.000000	0.000000	-0.859030	-3.766721	-1.442861	1.000000
[LPelvis]
#Fr	Tx	Ty	Tz	Rx	Ry	Rz	SF
875	0.000000	0.000000	0.000000	0.000000	0.000000	0.000000	1.000000
876	0.000000	0.000000	0.000000	0.000000	0.000000	0.000000	1.000000
877	0.000000	0.000000	0.000000	0.000000	0.000000	0.000000	1.000000
878	0.000000	0.000000	0.000000	0.000000	0.000000	0.000000	1.000000
[RPelvis]
#Fr	Tx	Ty	Tz	Rx	Ry	Rz	SF
875	0.000000	0.000000	0.000000	0.000000	0.000000	0.000000	1.000000
876	0.000000	0.000000	0.000000	0.000000	0.000000	0.000000	1.000000
877	0.000000	0.000000	0.000000	0.000000	0.000000	0.000000	1.000000
878	0.000000	0.000000	0.000000	0.000000	0.000000	0.000000	1.000000
[LThigh]
#Fr	Tx	Ty	Tz	Rx	Ry	Rz	SF
875	0.000000	0.000000	0.000000	43.724373	2.319301	-6.400215	1.000000
876	0.000000	0.000000	0.000000	45.363380	2.264257	-7.133211	1.000000
877	0.000000	0.000000	0.000000	46.602940	2.318810	-7.751856	1.000000
878	0.000000	0.000000	0.000000	47.500656	2.069429	-8.222611	1.000000
[RThigh]
#Fr	Tx	Ty	Tz	Rx	Ry	Rz	SF
875	0.000000	0.000000	0.000000	20.569241	4.562143	10.032001	1.000000
876	0.000000	0.000000	0.000000	18.307961	5.156833	10.014197	1.000000
877	0.000000	0.000000	0.000000	16.183451	5.819958	10.034893	1.000000
878	0.000000	0.000000	0.000000	14.212340	6.202573	10.126770	1.000000
[LLowLeg]
#Fr	Tx	Ty	Tz	Rx	Ry	Rz	SF
875	0.000000	0.000000	0.000000	-73.582436	5.289452	-2.140323	1.000000
876	0.000000	0.000000	0.000000	-68.902069	5.075519	-1.816155	1.000000
877	0.000000	0.000000	0.000000	-63.415615	4.792033	-1.459898	1.000000
878	0.000000	0.000000	0.000000	-57.216511	4.432306	-1.092096	1.000000
[RLowLeg]
#Fr	Tx	Ty	Tz	Rx	Ry	Rz	SF
875	0.000000	0.000000	0.000000	-30.493994	-1.712846	0.006616	1.000000
876	0.000000	0.000000	0.000000	-29.081043	-1.635215	-0.013849	1.000000
877	0.000000	0.000000	0.000000	-27.614969	-1.554153	-0.033052	1.000000
878	0.000000	0.000000	0.000000	-26.136168	-1.471912	-0.050314	1.000000
[LFoot]
#Fr	Tx	Ty	Tz	Rx	Ry	Rz	SF
875	0.000000	0.000000	0.000000	-3.228154	-0.495160	-1.604738	1.000000
876	0.000000	0.000000	0.000000	-2.788381	-1.045556	-2.425390	1.000000
877	0.000000	0.000000	0.000000	-2.297869	-1.119765	-2.472164	1.000000
878	0.000000	0.000000	0.000000	-1.783507	-0.987945	-2.165351	1.000000
[RFoot]
#Fr	Tx	Ty	Tz	Rx	Ry	Rz	SF
875	0.000000	0.000000	0.000000	9.139929	3.089056	1.111030	1.000000
876	0.000000	0.000000	0.000000	9.504674	2.996983	0.278813	1.000000
877	0.000000	0.000000	0.000000	9.723846	2.907994	-0.404714	1.000000
878	0.000000	0.000000	0.000000	9.811160	2.810260	-0.966359	1.000000
[Neck]
#Fr	Tx	Ty	Tz	Rx	Ry	Rz	SF
875	0.000000	0.000000	0.000000	-3.688496	2.779306	-6.392375	1.000000
876	0.000000	0.000000	0.000000	-3.799320	2.513741	-6.228973	1.000000
877	0.000000	0.000000	0.000000	-3.980868	2.281584	-6.076646	1.000000
878	0.000000	0.000000	0.000000	-4.224839	2.080617	-5.933977	1.000000
[Head]
#Fr	Tx	Ty	Tz	Rx	Ry	Rz	SF
875	0.000000	0.000000	0.000000	-8.860009	10.575933	-8.334982	1.000000
876	0.000000	0.000000	0.000000	-9.020318	9.937498	-8.338601	1.000000
877	0.000000	0.000000	0.000000	-9.384288	9.359221	-8.335414	1.000000
878	0.000000	0.000000	0.000000	-9.864041	8.825541	-8.322794	1.000000
[EndOfFile]
